PathFileType	4	(X/Y/Z)	D:\TRACE\v60_Jaco2_6-2-23\JustBodyDRS_Motion2_8-platform.trc
DataRate	CameraRate	NumFrames	NumMarkers	Units	OrigDataRate	OrigDataStartFrame	OrigNumFrames
100.00	100.00	      59	5	mm	100.00	5186	      6914
Frame#	Time	Left_Front			Right_Front			Left_Aft			Right_Aft			Post			
		X1	Y1	Z1	X2	Y2	Z2	X3	Y3	Z3	X4	Y4	Z4	X5	Y5	Z5	

5186	51.850	-842.26276	-52.09972	-650.56653	727.97955	-50.53759	-655.50665	-750.87592	49.11469	479.62094	692.69519	50.08060	490.26242	-56.00769	1212.21033	-1101.13599	
5187	51.860	-841.60181	-52.51192	-650.63574	728.17517	-51.07827	-655.75623	-750.27295	49.28445	479.58490	692.90686	50.11838	490.07568	-55.70519	1211.58569	-1101.21875	
5188	51.870	-841.05011	-52.72505	-650.78265	728.92426	-51.33484	-655.58997	-749.63702	49.38516	479.60202	693.34619	50.14074	489.98441	-55.11989	1211.08215	-1101.18054	
5189	51.880	-840.54669	-53.06058	-650.75446	729.69080	-51.41990	-655.64685	-748.89667	49.54838	479.72412	694.12433	50.34353	489.82132	-54.89458	1210.91418	-1101.09570	
5190	51.890	-839.86371	-53.09724	-650.58002	730.47858	-51.43200	-655.77460	-748.11902	49.70390	479.72641	694.90106	50.43243	489.60239	-53.92990	1210.64050	-1100.69678	
5191	51.900	-838.94812	-53.60764	-650.70917	731.28583	-51.55182	-655.88617	-747.39178	49.75902	479.59171	695.21063	50.43441	489.60849	-53.07057	1210.38782	-1100.41772	
5192	51.910	-838.15997	-53.69339	-650.55383	731.99805	-51.71949	-655.83569	-746.54327	49.57941	479.54532	695.94836	50.40023	489.46478	-52.61860	1210.19482	-1100.01233	
5193	51.920	-837.68506	-53.61810	-650.66669	732.40845	-51.84304	-655.92731	-746.01831	49.69203	479.57303	696.70618	50.44679	489.50790	-51.88534	1210.28784	-1099.13110	
5194	51.930	-836.80640	-53.49998	-650.80170	733.20142	-51.76376	-655.82336	-745.31287	49.69658	479.63638	697.47192	50.49867	489.54807	-51.41752	1210.29175	-1098.65503	
5195	51.940	-836.15375	-53.34399	-650.73004	734.15247	-51.60487	-655.66620	-744.41449	49.63626	479.86395	698.14233	50.49432	489.50769	-50.64884	1210.47363	-1097.90344	
5196	51.950	-835.32330	-53.32406	-650.62683	734.74268	-51.62785	-655.81946	-743.61926	49.49868	479.91086	699.15692	50.43942	489.47238	-49.97873	1210.55676	-1097.15015	
5197	51.960	-834.33417	-53.24559	-650.59241	735.55676	-51.63323	-655.97833	-742.85052	49.40532	480.00131	699.75854	50.37610	489.52951	-48.65266	1210.85010	-1096.24158	
5198	51.970	-833.67755	-53.12471	-650.68164	736.43414	-51.65305	-655.78876	-741.86426	49.19364	480.07254	700.49396	50.34151	489.54477	-47.99261	1210.99170	-1095.30750	
5199	51.980	-832.96033	-53.01828	-650.81506	737.30298	-51.52811	-655.87347	-741.10242	49.09946	480.10358	701.49615	50.26538	489.51288	-47.34599	1211.42834	-1094.20410	
5200	51.990	-831.92645	-52.64994	-650.84473	738.16602	-51.12040	-655.63751	-740.34418	48.89265	480.09418	702.25189	50.07798	489.68594	-46.64695	1211.88940	-1093.18738	
5201	52.000	-831.23224	-52.17259	-650.68640	739.01746	-50.76663	-655.54980	-739.50629	48.77504	480.16565	702.98022	49.92945	489.69998	-45.41616	1212.52637	-1092.15796	
5202	52.010	-830.48169	-51.93067	-650.50922	739.72430	-50.31780	-655.66956	-738.52258	48.75355	480.26865	703.82062	49.69172	489.86304	-44.55472	1213.15796	-1091.34875	
5203	52.020	-829.37531	-51.50987	-650.29132	740.53973	-49.75108	-655.54041	-737.70435	48.51949	480.38300	704.67383	49.26620	490.02222	-43.96957	1213.81433	-1089.67761	
5204	52.030	-828.58167	-51.52427	-650.56946	741.47260	-49.53515	-655.54169	-736.88867	48.20522	480.41257	705.34473	48.94821	490.04828	-43.16931	1214.58777	-1088.49097	
5205	52.040	-827.71600	-51.40237	-650.53986	742.58252	-49.21638	-655.51080	-735.77631	47.76140	480.58035	706.71210	48.51828	490.18588	-42.23774	1215.42273	-1087.45972	
5206	52.050	-826.73193	-50.50743	-650.21295	743.21606	-48.65137	-655.44513	-735.01086	47.27893	480.71591	707.50891	48.27869	490.39206	-41.14144	1216.40759	-1086.11462	
5207	52.060	-826.11926	-49.88739	-650.16034	744.18201	-47.72321	-655.19470	-734.22626	47.13179	480.91278	708.34949	47.76078	490.47482	-40.32094	1217.35046	-1085.07666	
5208	52.070	-824.65881	-49.03011	-649.79810	745.34180	-47.30608	-655.02570	-733.15320	46.82738	480.97504	709.28058	47.43913	490.83508	-39.27191	1218.37927	-1083.78931	
5209	52.080	-823.89856	-48.22335	-649.96149	746.32306	-46.49078	-655.14648	-732.04346	46.10291	481.45093	710.22253	46.87872	490.96625	-38.60496	1219.44763	-1082.31702	
5210	52.090	-823.09430	-47.75331	-650.00879	747.11041	-45.88461	-655.02850	-731.15332	45.63005	481.57886	711.20825	46.45380	491.25970	-37.81818	1220.69153	-1081.32129	
5211	52.100	-822.27686	-47.24215	-649.91260	747.91577	-45.38246	-654.96552	-730.02325	45.11552	481.50565	712.19684	45.94316	491.22549	-36.39602	1221.70715	-1079.98059	
5212	52.110	-821.06049	-46.65301	-649.50922	749.17413	-44.69364	-654.75421	-729.28229	44.56918	481.85138	713.12445	45.54383	491.53876	-35.58381	1222.75537	-1078.09546	
5213	52.120	-819.94452	-46.08385	-649.56622	750.07269	-44.01215	-654.88879	-728.26013	44.12416	482.10599	714.87201	45.59253	492.09296	-34.52530	1223.63611	-1076.74951	
5214	52.130	-818.93390	-45.23717	-649.50311	751.11603	-43.36203	-654.64642	-726.81451	43.53270	482.35901	714.87305	44.48917	491.55286	-33.62075	1224.78918	-1075.41809	
5215	52.140	-818.08582	-44.43670	-649.45349	752.26068	-42.57715	-654.40814	-726.04437	43.50477	482.53085	716.12189	44.15433	491.61957	-32.95243	1226.00208	-1073.78479	
5216	52.150	-816.95111	-43.79565	-649.34253	753.23273	-41.94424	-654.59485	-724.95807	43.03289	482.61127	717.28442	43.74873	491.81149	-31.20205	1227.13232	-1072.54321	
5217	52.160	-815.87830	-43.15522	-649.29089	754.17889	-41.15555	-654.45386	-724.13623	42.59562	482.92865	717.91235	43.06628	491.91901	-30.41616	1228.24084	-1070.95911	
5218	52.170	-814.99884	-42.31453	-649.33112	755.02197	-40.40824	-654.23364	-723.30115	42.06285	483.17447	719.31848	42.72491	492.26633	-29.66851	1229.56567	-1069.63379	
5219	52.180	-814.09375	-41.57176	-648.91473	756.13745	-39.61390	-654.13416	-722.07013	41.33927	483.37979	719.90326	41.89710	492.35226	-28.33870	1230.80896	-1068.35889	
5220	52.190	-812.82300	-40.33507	-648.86597	757.07019	-38.48611	-654.16791	-721.09430	40.89300	483.63083	721.40002	41.50869	492.65665	-27.12059	1232.27258	-1066.78296	
5221	52.200	-811.53918	-39.52771	-648.55585	758.28369	-37.46735	-653.75977	-719.90289	40.31574	483.77118	722.39038	40.81477	492.91296	-26.18882	1233.93091	-1065.60522	
5222	52.210	-810.60242	-38.61918	-648.48834	759.56836	-36.70855	-653.72717	-718.76459	39.50128	484.04962	723.58484	40.05966	493.19727	-24.77497	1235.38440	-1063.94360	
5223	52.220	-809.60339	-37.51639	-648.41431	760.41675	-35.68032	-653.68604	-717.80884	38.73028	484.38080	724.59198	39.41680	493.74521	-23.78754	1237.02991	-1062.15784	
5224	52.230	-808.51831	-36.34275	-648.21692	761.75568	-34.50239	-653.06305	-716.53564	37.90926	484.85648	725.50293	38.49959	493.88690	-22.32763	1238.71277	-1060.64893	
5225	52.240	-807.33783	-35.22801	-647.99817	762.71619	-33.35138	-653.04608	-715.45020	37.23330	485.01199	726.86517	37.73922	494.13968	-21.70458	1240.57556	-1058.78320	
5226	52.250	-806.09033	-34.14086	-647.69769	763.84393	-32.24366	-653.02240	-714.32111	36.53782	485.27469	727.69580	36.89231	494.35324	-20.65716	1242.44971	-1056.97754	
5227	52.260	-805.12616	-32.68166	-647.63104	765.03436	-30.96677	-652.61603	-713.13336	35.60679	485.57773	729.06226	36.28281	494.72769	-19.29067	1244.44434	-1054.90137	
5228	52.270	-804.19513	-31.54752	-647.31256	765.96045	-29.72608	-652.40558	-712.23053	34.88887	485.78815	729.94403	35.24739	495.01678	-18.04925	1246.20496	-1052.42908	
5229	52.280	-802.92133	-30.59945	-647.30536	767.20258	-28.68466	-652.36249	-710.88306	33.93521	486.25223	731.30414	34.44640	495.52499	-16.92525	1248.03455	-1050.25793	
5230	52.290	-801.75952	-29.20662	-647.08051	768.58179	-27.29253	-651.83209	-709.96942	33.09536	486.55701	733.01270	34.12411	496.99985	-16.01144	1249.95923	-1047.97839	
5231	52.300	-800.59503	-27.80061	-646.79993	769.29327	-26.19018	-651.89642	-708.91461	32.38222	486.77087	734.07019	33.28543	497.33481	-14.73960	1251.89197	-1045.15515	
5232	52.310	-799.45892	-26.96199	-646.51532	770.51965	-24.79409	-651.67096	-707.85028	32.07110	486.98700	735.92279	32.77841	497.75687	-13.59854	1253.96167	-1042.26819	
5233	52.320	-798.27313	-25.44241	-646.39838	771.97650	-23.77346	-651.49237	-706.74225	31.05777	487.29834	737.40906	32.26528	498.29163	-12.16292	1255.66858	-1039.44946	
5234	52.330	-797.22467	-24.18292	-646.11139	772.66699	-22.39280	-651.29016	-705.55231	30.18680	487.81418	737.09717	30.36309	497.06488	-11.23919	1257.98523	-1036.27124	
5235	52.340	-796.01172	-23.03904	-645.69196	774.05774	-21.10360	-650.79877	-704.37811	29.14297	488.24680	737.80151	29.27233	497.35190	-10.20193	1259.97058	-1033.20728	
5236	52.350	-794.99658	-21.57551	-645.75287	775.12665	-19.83885	-650.95477	-703.38306	28.35993	488.52774	739.09924	28.51888	497.78836	-9.23305	1261.99158	-1030.00732	
5237	52.360	-793.82770	-20.00230	-645.40845	776.19348	-18.45735	-650.40472	-701.97150	27.38465	488.86456	739.27234	26.79147	497.86954	-8.40646	1263.72290	-1026.41467	
5238	52.370	-792.63702	-18.86422	-645.09424	777.39917	-17.01427	-650.11774	-700.97028	26.73466	489.27368	740.58557	26.17919	498.53525	-6.79860	1266.06873	-1022.75177	
5239	52.380	-791.60553	-17.97700	-644.56012	778.57043	-16.01546	-650.12982	-699.36926	25.40022	489.66800	742.13885	25.37289	498.72025	-5.37177	1268.11438	-1019.45746	
5240	52.390	-790.47852	-16.33960	-644.66296	779.59821	-14.48728	-649.60419	-698.59857	24.79727	489.82047	743.60175	24.52455	499.63129	-4.54736	1270.35022	-1015.93335	
5241	52.400	-789.17700	-14.75334	-644.27063	780.97314	-13.11011	-649.34204	-697.15100	23.15418	490.36246	745.70343	24.07386	500.80118	-3.42945	1272.74438	-1011.94720	
5242	52.410	-788.04181	-13.12946	-643.99237	781.99170	-11.79032	-649.06842	-696.18414	22.37045	490.73053	744.90814	21.69766	499.51709	-2.68416	1275.51721	-1008.85864	
5243	52.420	-786.92822	-11.65626	-643.75006	782.99805	-9.93133	-648.95459	-694.88873	21.08857	491.33755	746.70703	21.11413	500.53506	-1.42544	1277.81506	-1005.39404	
5244	52.430	-785.99445	-9.84379	-643.23834	784.38538	-8.29640	-648.28406	-693.85321	20.28948	491.57187	748.08032	20.04497	501.18719	-0.38282	1280.21008	-1002.17175	
